<svg width="19" height="18" viewBox="0 0 19 18" fill="none" xmlns="http://www.w3.org/2000/svg">
<g clip-path="url(#clip0_456_76)">
<path fill-rule="evenodd" clip-rule="evenodd" d="M7.274 14.25C11.8022 14.25 14.279 10.2099 14.279 6.70671C14.279 6.5917 14.279 6.47734 14.2718 6.36363C14.7536 5.98888 15.1694 5.52369 15.5 4.9913C15.0512 5.2058 14.5742 5.34666 14.0864 5.40868C14.6 5.07723 14.9846 4.55647 15.1688 3.94202C14.6852 4.25086 14.1566 4.4686 13.6052 4.58554C12.6728 3.51817 11.1134 3.46649 10.1216 4.47054C9.4826 5.11793 9.2108 6.08322 9.4094 7.00392C7.43 6.89666 5.5856 5.89003 4.3352 4.23406C3.6818 5.44551 4.016 6.99487 5.0978 7.77278C4.706 7.76051 4.3226 7.64679 3.98 7.44133V7.47493C3.9806 8.73678 4.8068 9.82353 5.9552 10.0736C5.5928 10.1802 5.2124 10.1957 4.844 10.1188C5.1662 11.1991 6.0908 11.9389 7.1438 11.9602C6.272 12.6981 5.195 13.0986 4.0862 13.0973C3.8906 13.0967 3.695 13.0844 3.5 13.0592C4.6262 13.8371 5.936 14.25 7.274 14.2481" fill="white"/>
</g>
<defs>
<clipPath id="clip0_456_76">
<rect width="12" height="10.5" fill="white" transform="translate(3.5 3.75)"/>
</clipPath>
</defs>
</svg>
